<?xml version="1.0" encoding="UTF-8" standalone="no"?>
<svg
   xmlns:dc="http://purl.org/dc/elements/1.1/"
   xmlns:cc="http://creativecommons.org/ns#"
   xmlns:rdf="http://www.w3.org/1999/02/22-rdf-syntax-ns#"
   xmlns:svg="http://www.w3.org/2000/svg"
   xmlns="http://www.w3.org/2000/svg"
   xmlns:sodipodi="http://sodipodi.sourceforge.net/DTD/sodipodi-0.dtd"
   xmlns:inkscape="http://www.inkscape.org/namespaces/inkscape"
   version="1.1"
   width="500mm"
   height="400mm"
   viewBox="0 0 1771.655 1417.3241"
   id="svg2"
   inkscape:version="0.91 r13725"
   sodipodi:docname="Fjernkontroll.svg">
  <metadata
     id="metadata32">
    <rdf:RDF>
      <cc:Work
         rdf:about="">
        <dc:format>image/svg+xml</dc:format>
        <dc:type
           rdf:resource="http://purl.org/dc/dcmitype/StillImage" />
        <dc:title></dc:title>
      </cc:Work>
    </rdf:RDF>
  </metadata>
  <defs
     id="defs30" />
  <sodipodi:namedview
     pagecolor="#ffffff"
     bordercolor="#666666"
     borderopacity="1"
     objecttolerance="10"
     gridtolerance="10"
     guidetolerance="10"
     inkscape:pageopacity="0"
     inkscape:pageshadow="2"
     inkscape:window-width="1366"
     inkscape:window-height="705"
     id="namedview28"
     showgrid="false"
     inkscape:document-units="mm"
     inkscape:snap-global="false"
     showguides="true"
     inkscape:guide-bbox="true"
     inkscape:zoom="1.7733884"
     inkscape:cx="402.78216"
     inkscape:cy="143.16722"
     inkscape:window-x="-8"
     inkscape:window-y="-8"
     inkscape:window-maximized="1"
     inkscape:current-layer="svg2" />
  <!-- Front-->
  <g
     transform="translate(22.500018,1132.6191)"
     id="g4">
    <path
       style="fill:none;stroke:#000000;stroke-width:0.90000075"
       d="m 62.149657,14.17324 17.574818,0 0,-14.17324 17.858282,0 0,14.17324 17.574813,0 0,-14.17324 17.85829,0 0,14.17324 17.57481,0 0,-14.17324 17.85829,0 0,14.17324 17.57482,0 0,-14.17324 17.85828,0 0,14.17324 22.00395,0 0,-14.17324 22.28742,0 0,19.984268 -14.17324,0 0,19.700804 14.17324,0 0,19.984268 -14.17324,0 0,19.700804 14.17324,0 0,19.984268 -22.28742,0 0,-14.17324 -22.00395,0 0,14.17324 -17.85828,0 0,-14.17324 -17.57482,0 0,14.17324 -17.85829,0 0,-14.17324 -17.57481,0 0,14.17324 -17.85829,0 0,-14.17324 -17.574813,0 0,14.17324 -17.858282,0 0,-14.17324 -17.574818,0 0,14.17324 -17.858282,0 0,-14.17324 -22.003955,0 0,14.17324 -22.28742,0 0,-19.984268 14.17324,0 0,-19.700804 -14.17324,0 0,-19.984268 14.17324,0 0,-19.700804 L 0,19.984268 0,0 l 22.28742,0 0,14.17324 22.003955,0 0,-14.17324 17.858282,0 z"
       id="polygon6" />
  </g>
  <!-- Back-->
  <g
     transform="translate(270.67345,1132.6191)"
     id="g8">
    <path
       style="fill:none;stroke:#000000;stroke-width:0.90000075"
       d="m 62.149657,14.17324 17.574818,0 0,-14.17324 17.858282,0 0,14.17324 17.574813,0 0,-14.17324 17.85829,0 0,14.17324 17.57481,0 0,-14.17324 17.85829,0 0,14.17324 17.57482,0 0,-14.17324 17.85828,0 0,14.17324 22.00395,0 0,-14.17324 22.28742,0 0,19.984268 -14.17324,0 0,19.700804 14.17324,0 0,19.984268 -14.17324,0 0,19.700804 14.17324,0 0,19.984268 -22.28742,0 0,-14.17324 -22.00395,0 0,14.17324 -17.85828,0 0,-14.17324 -17.57482,0 0,14.17324 -17.85829,0 0,-14.17324 -17.57481,0 0,14.17324 -17.85829,0 0,-14.17324 -17.574813,0 0,14.17324 -17.858282,0 0,-14.17324 -17.574818,0 0,14.17324 -17.858282,0 0,-14.17324 -22.003955,0 0,14.17324 -22.28742,0 0,-19.984268 14.17324,0 0,-19.700804 -14.17324,0 0,-19.984268 14.17324,0 0,-19.700804 L 0,19.984268 0,0 l 22.28742,0 0,14.17324 22.003955,0 0,-14.17324 17.858282,0 z"
       id="polygon10" />
  </g>
  <!-- Left-->
  <g
     transform="translate(518.84688,1132.6191)"
     id="g12">
    <path
       style="fill:none;stroke:#000000;stroke-width:0.90000075"
       d="m 72.779587,14.17324 17.574818,0 0,-14.17324 17.858285,0 0,14.17324 27.31892,0 0,-14.17324 13.42914,0 0,19.842536 14.17324,0 0,19.984268 -14.17324,0 0,19.700804 14.17324,0 0,19.984268 -14.17324,0 0,19.842536 -13.42914,0 0,-14.17324 -27.31892,0 0,14.17324 -17.858285,0 0,-14.17324 -17.574818,0 0,14.17324 -17.858282,0 0,-14.17324 -27.31892,0 0,14.17324 -13.429145,0 0,-19.842536 -14.17324,0 0,-19.984268 14.17324,0 0,-19.700804 -14.17324,0 0,-19.984268 14.17324,0 0,-19.842536 13.429145,0 0,14.17324 27.31892,0 0,-14.17324 17.858282,0 z"
       id="polygon14" />
  </g>
  <!-- Right-->
  <g
     transform="translate(518.84688,1231.9735)"
     id="g16">
    <path
       style="fill:none;stroke:#000000;stroke-width:0.90000075"
       d="m 72.779587,14.17324 17.574818,0 0,-14.17324 17.858285,0 0,14.17324 27.31892,0 0,-14.17324 13.42914,0 0,19.842536 14.17324,0 0,19.984268 -14.17324,0 0,19.700804 14.17324,0 0,19.984268 -14.17324,0 0,19.842536 -13.42914,0 0,-14.17324 -27.31892,0 0,14.17324 -17.858285,0 0,-14.17324 -17.574818,0 0,14.17324 -17.858282,0 0,-14.17324 -27.31892,0 0,14.17324 -13.429145,0 0,-19.842536 -14.17324,0 0,-19.984268 14.17324,0 0,-19.700804 -14.17324,0 0,-19.984268 14.17324,0 0,-19.842536 13.429145,0 0,14.17324 27.31892,0 0,-14.17324 17.858282,0 z"
       id="polygon18" />
  </g>
  <!-- Top-->
  <g
     transform="translate(22.500018,1231.9735)"
     id="g20">
    <path
       style="fill:none;stroke:#000000;stroke-width:0.90000075"
       d="m 62.007925,0 17.858282,0 0,14.17324 17.574818,0 0,-14.17324 17.858285,0 0,14.17324 17.57481,0 0,-14.17324 17.85829,0 0,14.17324 17.57481,0 0,-14.17324 17.85829,0 0,14.17324 17.57481,0 0,-14.17324 22.28742,0 0,14.17324 7.97245,0 0,13.287412 14.17324,0 0,27.602385 -14.17324,0 0,17.574818 14.17324,0 0,17.858282 -14.17324,0 0,17.574813 14.17324,0 0,27.60239 -14.17324,0 0,13.28741 -7.97245,0 0,14.17324 -22.28742,0 0,-14.17324 -17.57481,0 0,14.17324 -17.85829,0 0,-14.17324 -17.57481,0 0,14.17324 -17.85829,0 0,-14.17324 -17.57481,0 0,14.17324 -17.858285,0 0,-14.17324 -17.574818,0 0,14.17324 -17.858282,0 0,-14.17324 -17.574818,0 0,14.17324 -22.287419,0 0,-14.17324 -7.972448,0 0,-13.28741 -14.17324,0 0,-27.60239 14.17324,0 0,-17.574813 -14.17324,0 0,-17.858282 14.17324,0 0,-17.574818 -14.17324,0 0,-27.602385 14.17324,0 0,-13.287412 7.972448,0 0,-14.17324 22.287419,0 0,14.17324 17.574818,0 z"
       id="polygon22" />
  </g>
  <!-- Bottom-->
  <g
     transform="translate(270.67345,1231.9735)"
     id="g24">
    <path
       style="fill:none;stroke:#000000;stroke-width:0.90000075"
       d="m 62.007925,0 17.858282,0 0,14.17324 17.574818,0 0,-14.17324 17.858285,0 0,14.17324 17.57481,0 0,-14.17324 17.85829,0 0,14.17324 17.57481,0 0,-14.17324 17.85829,0 0,14.17324 17.57481,0 0,-14.17324 22.28742,0 0,14.17324 7.97245,0 0,13.287412 14.17324,0 0,27.602385 -14.17324,0 0,17.574818 14.17324,0 0,17.858282 -14.17324,0 0,17.574813 14.17324,0 0,27.60239 -14.17324,0 0,13.28741 -7.97245,0 0,14.17324 -22.28742,0 0,-14.17324 -17.57481,0 0,14.17324 -17.85829,0 0,-14.17324 -17.57481,0 0,14.17324 -17.85829,0 0,-14.17324 -17.57481,0 0,14.17324 -17.858285,0 0,-14.17324 -17.574818,0 0,14.17324 -17.858282,0 0,-14.17324 -17.574818,0 0,14.17324 -22.287419,0 0,-14.17324 -7.972448,0 0,-13.28741 -14.17324,0 0,-27.60239 14.17324,0 0,-17.574813 -14.17324,0 0,-17.858282 14.17324,0 0,-17.574818 -14.17324,0 0,-27.602385 14.17324,0 0,-13.287412 7.972448,0 0,-14.17324 22.287419,0 0,14.17324 17.574818,0 z"
       id="polygon26" />
  </g>
  <path
     style="fill:none;stroke:#000000"
     d="m 926.92798,1302.7271 21.25988,0 0,21.2598 -21.25988,0 z"
     id="rect3376-6" />
  <path
     style="fill:none;stroke:#000000;stroke-width:1.20496809"
     d="m 490.35816,1245.6943 28.07235,0 0,23.3773 -28.07235,0 z"
     id="rect3376-3"
     inkscape:connector-curvature="0" />
  <path
     style="fill:none;stroke:#000000;stroke-width:1.20502424"
     d="m 490.6824,1301.9605 28.08065,0 0,23.3726 -28.08065,0 z"
     id="rect3376-9"
     inkscape:connector-curvature="0" />
  <path
     style="fill:none;stroke:#000000;stroke-width:1.23877728"
     d="m 490.37762,1356.1313 28.03344,0 0,24.7418 -28.03344,0 z"
     id="rect3376-1"
     inkscape:connector-curvature="0" />
  <path
     style="fill:none;stroke:#000000;stroke-width:1.1675154"
     d="m 481.75683,1341.5068 a 13.791465,13.791464 0 0 1 -13.79147,13.7915 13.791465,13.791464 0 0 1 -13.79146,-13.7915 13.791465,13.791464 0 0 1 13.79146,-13.7914 13.791465,13.791464 0 0 1 13.79147,13.7914 z"
     id="path3425" />
  <path
     style="fill:none;stroke:#000000;stroke-width:1.37320721"
     d="m 405.16959,1339.0374 34.05989,0 0,34.0598 -34.05989,0 z"
     id="rect3427" />
  <path
     style="fill:none;stroke:#000000;stroke-width:1.37320721"
     d="m 405.02823,1257.2365 34.05993,0 0,34.0599 -34.05993,0 z"
     id="rect3427-7" />
  <path
     style="fill:none;stroke:#000000;stroke-width:2.30145764"
     d="m 294.90689,1255.2526 84.16946,0 0,38.7139 -84.16946,0 z"
     id="rect3427-7-2" />
  <path
     style="fill:none;stroke:#000000;stroke-width:1.29918051"
     d="m 339.39972,1350.0295 38.52001,0 0,26.9568 -38.52001,0 z"
     id="rect3427-8" />
  <path
     style="fill:none;stroke:#000000;stroke-width:1.32873249"
     d="m 270.6407,1298.4032 26.86539,0 0,29.7032 -26.86539,0 z"
     id="rect3376-9-8"
     inkscape:connector-curvature="0" />
  <path
     transform="matrix(0,-1,1,0,0,0)"
     style="fill:none;stroke:#000000;stroke-width:1.24215281"
     d="m -1331.3397,585.99475 23.4101,0 0,29.78989 -23.4101,0 z"
     id="rect3376-9-8-2" />
  <path
     transform="matrix(0,-1,1,0,0,0)"
     style="fill:none;stroke:#000000;stroke-width:1.24215281"
     d="m -1231.6566,585.67072 23.4101,0 0,29.78988 -23.4101,0 z"
     id="rect3376-9-8-2-6" />
  <path
     transform="matrix(0,-1,1,0,0,0)"
     style="fill:none;stroke:#000000;stroke-width:1.24215281"
     d="m -1231.6649,533.16785 23.4101,0 0,29.78988 -23.4101,0 z"
     id="rect3376-9-8-2-3" />
  <path
     transform="matrix(0,-1,1,0,0,0)"
     style="fill:none;stroke:#000000;stroke-width:1.24215281"
     d="m -1231.3021,637.64575 23.4101,0 0,29.78989 -23.4101,0 z"
     id="rect3376-9-8-2-9" />
</svg>
